<svg id="Layer_1" data-name="Layer 1" xmlns="http://www.w3.org/2000/svg" viewBox="0 0 114.41 79.06"><title>field</title><path d="M658.82,433.62h4.11a1.25,1.25,0,0,0,1.27-1.24v-4A5.31,5.31,0,0,0,658.82,433.62Z" transform="translate(-557.59 -361.94)"/><path d="M664.2,374.55v-4a1.26,1.26,0,0,0-1.27-1.24h-4.11A5.31,5.31,0,0,0,664.2,374.55Z" transform="translate(-557.59 -361.94)"/><path d="M570.29,369.32h-4.11a1.26,1.26,0,0,0-1.28,1.24v4A5.32,5.32,0,0,0,570.29,369.32Z" transform="translate(-557.59 -361.94)"/><path d="M658.22,389.21h4.71a2.2,2.2,0,0,1,.36,0v-6.44a.36.36,0,0,0-.36-.35H647.74a.37.37,0,0,0-.37.35V420a.37.37,0,0,0,.37.36h15.19a.36.36,0,0,0,.36-.36v-6.6a2.19,2.19,0,0,1-.36,0h-4.71a2.16,2.16,0,0,1-2.19-2.12v-20A2.16,2.16,0,0,1,658.22,389.21Z" transform="translate(-557.59 -361.94)"/><path d="M581.37,380.69a2.15,2.15,0,0,1,2.18,2.12v9.43c1.59,1.29,2.73,4.66,2.73,8.63s-1.14,7.35-2.73,8.64V420a2.16,2.16,0,0,1-2.18,2.13H566.18a2.24,2.24,0,0,1-1.28-.41v5.43a6.58,6.58,0,0,1,6.67,6.47h42.32V415.17a13.77,13.77,0,0,1,0-27.53V369.32H571.57a6.58,6.58,0,0,1-6.67,6.47v5.3a2.23,2.23,0,0,1,1.28-.4Z" transform="translate(-557.59 -361.94)"/><path d="M664.2,427.15v-5.43a2.24,2.24,0,0,1-1.27.41H647.74a2.16,2.16,0,0,1-2.19-2.13V409.51c-1.59-1.29-2.72-4.66-2.72-8.64s1.13-7.34,2.72-8.63v-9.43a2.16,2.16,0,0,1,2.19-2.12h15.19a2.23,2.23,0,0,1,1.27.4v-5.3a6.57,6.57,0,0,1-6.66-6.47H615.72v18.32a13.77,13.77,0,0,1,0,27.53v18.45h41.82A6.57,6.57,0,0,1,664.2,427.15Z" transform="translate(-557.59 -361.94)"/><path d="M570.89,413.43h-4.71a2.22,2.22,0,0,1-.37,0V420a.37.37,0,0,0,.37.36h15.19a.36.36,0,0,0,.36-.36V382.81a.36.36,0,0,0-.36-.35H566.18a.37.37,0,0,0-.37.35v6.44a2.21,2.21,0,0,1,.37,0h4.71a2.17,2.17,0,0,1,2.19,2.13v20A2.16,2.16,0,0,1,570.89,413.43Z" transform="translate(-557.59 -361.94)"/><path d="M602.39,401.41a12.2,12.2,0,0,0,11.5,12v-24A12.2,12.2,0,0,0,602.39,401.41Z" transform="translate(-557.59 -361.94)"/><path d="M564.9,428.39v4a1.26,1.26,0,0,0,1.28,1.24h4.11A5.32,5.32,0,0,0,564.9,428.39Z" transform="translate(-557.59 -361.94)"/><path d="M627.22,401.41a12.2,12.2,0,0,0-11.5-12v24A12.2,12.2,0,0,0,627.22,401.41Z" transform="translate(-557.59 -361.94)"/><path d="M558.87,441H670.72a1.26,1.26,0,0,0,1.28-1.24V361.94H558.87a1.27,1.27,0,0,0-1.28,1.24v76.58A1.26,1.26,0,0,0,558.87,441ZM562.11,367a.63.63,0,0,1,.64-.62H667.48V436a.63.63,0,0,1-.64.62H562.75a.63.63,0,0,1-.64-.62Z" transform="translate(-557.59 -361.94)"/><path d="M663.29,394.72v-3.38a.36.36,0,0,0-.36-.36h-4.71a.36.36,0,0,0-.37.36v20a.35.35,0,0,0,.37.35h4.71a.35.35,0,0,0,.36-.35v-3.38a1.31,1.31,0,0,0,.91-.54,1.18,1.18,0,0,0,.22-.69V396a1.16,1.16,0,0,0-.22-.69A1.27,1.27,0,0,0,663.29,394.72Z" transform="translate(-557.59 -361.94)"/><path d="M565.74,407.94h.07v3.37a.36.36,0,0,0,.37.35h4.71a.35.35,0,0,0,.36-.35v-20a.36.36,0,0,0-.36-.36h-4.71a.37.37,0,0,0-.37.36v3.37h-.07a1.29,1.29,0,0,0-.84.31,1.22,1.22,0,0,0-.44.93V406.7a1.22,1.22,0,0,0,.44.93A1.29,1.29,0,0,0,565.74,407.94Z" transform="translate(-557.59 -361.94)"/></svg>