<?xml version="1.0" encoding="iso-8859-1"?>
<!-- Generator: Adobe Illustrator 19.0.0, SVG Export Plug-In . SVG Version: 6.00 Build 0)  -->
<svg xmlns="http://www.w3.org/2000/svg" xmlns:xlink="http://www.w3.org/1999/xlink" version="1.1" id="Layer_1" x="0px" y="0px" viewBox="0 0 512 512" style="enable-background:new 0 0 512 512;" xml:space="preserve" width="512px" height="512px">
<g>
	<polygon points="192.799,433.799 192.799,117.615 174.6,99.415 174.6,433.799  " fill="#000266"/>
	<path d="M493.799,18.879v173.92H512v-129.6C512,45.948,505.045,30.295,493.799,18.879z" fill="#000266"/>
	<polygon points="289.2,433.799 289.2,147.617 271,165.817 271,433.799  " fill="#000266"/>
	<polygon points="241,433.799 241,165.817 222.799,147.616 222.799,433.799  " fill="#000266"/>
	<path d="M463.799,1.814c-4.811-1.176-9.831-1.813-15-1.813h-3.197v192.799h18.197V1.814z" fill="#000266"/>
	<path d="M367.399,433.799H415.6V271h0.002v-63.152c0-0.017-0.002-0.032-0.002-0.049s0.002-0.032,0.002-0.049V21.212l-48.203,48.204   V433.799z" fill="#000266"/>
	<polygon points="337.399,433.799 337.399,99.416 319.2,117.617 319.2,433.799  " fill="#000266"/>
	<polygon points="317.951,0 194.049,0 256,61.951  " fill="#000266"/>
	<path d="M151.566,512h208.866c28.059,0,51.274-21.061,54.712-48.201H96.855C100.292,490.94,123.508,512,151.566,512z" fill="#000266"/>
	<path d="M0,239.934C0,257.064,13.936,271,31.066,271h35.335v-48.201H0V239.934z" fill="#000266"/>
	<path d="M445.602,271h35.33C498.063,271,512,257.064,512,239.934v-17.135h-66.398V271z" fill="#000266"/>
	<path d="M170.225,52.614l48.163,48.164c0.012,0.012,0.023,0.023,0.034,0.034L256,138.39l37.566-37.567   c0.018-0.018,0.036-0.036,0.055-0.055l48.143-48.144c0.02-0.021,0.04-0.04,0.06-0.059L394.387,0h-34.011l-93.771,93.771   c-2.813,2.813-6.628,4.394-10.605,4.394c-3.978,0-7.794-1.58-10.607-4.394L151.623,0h-34.011l52.573,52.574   C170.199,52.587,170.211,52.6,170.225,52.614z" fill="#000266"/>
	<path d="M18.2,18.879C6.955,30.295,0,45.948,0,63.199v129.6h18.2V18.879z" fill="#000266"/>
	<polygon points="144.6,69.414 96.402,21.216 96.402,433.799 144.6,433.799  " fill="#000266"/>
	<path d="M48.2,1.814v190.985h18.202V0H63.2C58.032,0,53.011,0.638,48.2,1.814z" fill="#000266"/>
</g>















</svg>
